<?xml version="1.0" encoding="UTF-8" standalone="no"?>
<!DOCTYPE svg PUBLIC "-//W3C//DTD SVG 1.1//EN" "http://www.w3.org/Graphics/SVG/1.1/DTD/svg11.dtd">
<svg width="100%" height="100%" viewBox="0 0 600 600" version="1.1" xmlns="http://www.w3.org/2000/svg" xmlns:xlink="http://www.w3.org/1999/xlink" xml:space="preserve" xmlns:serif="http://www.serif.com/" style="fill-rule:evenodd;clip-rule:evenodd;stroke-linejoin:round;stroke-miterlimit:2;">
    <g transform="matrix(1.24044,0,0,1.24044,300,300)">
        <g id="linkedin.svg" transform="matrix(1,0,0,1,-256,-256)">
            <g id="_x31_0.Linkedin">
                <path d="M460.8,460.8L460.8,310.784C460.8,237.056 444.928,180.736 358.912,180.736C317.44,180.736 289.792,203.264 278.528,224.768L277.504,224.768L277.504,187.392L196.096,187.392L196.096,460.8L281.088,460.8L281.088,325.12C281.088,289.28 287.744,254.976 331.776,254.976C375.296,254.976 375.808,295.424 375.808,327.168L375.808,460.288L460.8,460.288L460.8,460.8Z" style="fill-rule:nonzero;"/>
                <rect x="57.856" y="187.392" width="84.992" height="273.408" style="fill-rule:nonzero;"/>
                <path d="M100.352,51.2C73.216,51.2 51.2,73.216 51.2,100.352C51.2,127.488 73.216,150.016 100.352,150.016C127.488,150.016 149.504,127.488 149.504,100.352C149.504,73.216 127.488,51.2 100.352,51.2Z" style="fill-rule:nonzero;"/>
            </g>
        </g>
        <g id="linkedin.svg1" serif:id="linkedin.svg">
        </g>
    </g>
</svg>
