<?xml version="1.0" standalone="no"?>
<!DOCTYPE svg PUBLIC "-//W3C//DTD SVG 20010904//EN"
 "http://www.w3.org/TR/2001/REC-SVG-20010904/DTD/svg10.dtd">
<svg version="1.0" xmlns="http://www.w3.org/2000/svg"
 width="512.000000pt" height="512.000000pt" viewBox="0 0 512.000000 512.000000"
 preserveAspectRatio="xMidYMid meet">
<metadata>
Created by potrace 1.14, written by Peter Selinger 2001-2017
</metadata>
<g transform="translate(0.000000,512.000000) scale(0.100000,-0.100000)"
fill="#000000" stroke="none">
<path d="M2458 4845 c-2 -1 -43 -5 -93 -9 -266 -19 -550 -98 -810 -226 -557
-274 -973 -753 -1165 -1340 -153 -468 -153 -957 -1 -1418 436 -1323 1932
-1955 3176 -1342 573 282 999 785 1184 1395 32 105 55 207 67 291 3 27 8 52
10 55 6 11 18 204 18 309 0 375 -84 719 -257 1053 -251 483 -681 871 -1192
1075 -128 51 -345 110 -465 127 -25 3 -52 8 -60 10 -40 11 -402 28 -412 20z
m-331 -1164 c-12 -13 -54 -56 -93 -96 l-70 -71 -140 0 c-156 1 -209 -11 -330
-70 -182 -90 -330 -270 -379 -462 -21 -85 -29 -206 -17 -270 l9 -53 -208 -209
c-178 -178 -210 -206 -213 -187 -15 73 -19 118 -21 257 -6 315 52 583 184 855
95 194 144 263 209 296 33 16 71 27 104 28 29 1 53 3 54 4 1 1 212 2 468 2
l465 0 -22 -24z m1928 -2 c58 -29 102 -83 166 -202 100 -186 164 -362 200
-548 30 -159 29 -148 33 -329 5 -213 -10 -342 -63 -539 -16 -60 -27 -82 -62
-117 -87 -88 73 -81 -1778 -80 -1089 1 -1642 5 -1654 12 -16 9 9 37 188 217
l206 207 67 -54 c97 -78 216 -134 323 -152 75 -13 230 -8 299 10 230 59 424
233 503 452 32 89 38 120 42 224 4 112 -22 237 -70 332 -35 69 -75 131 -99
153 -6 6 -19 20 -29 31 -17 21 -15 24 178 216 l195 195 653 -1 652 -1 50 -26z"/>
<path d="M3290 3505 c-97 -22 -141 -39 -222 -86 -173 -101 -309 -294 -343
-489 -12 -68 -13 -162 -2 -189 36 -86 104 -131 192 -128 101 4 167 75 180 193
8 76 12 90 38 143 30 61 102 130 167 159 73 34 182 35 253 4 129 -57 199 -157
213 -304 9 -93 49 -153 121 -183 102 -43 224 18 254 127 10 38 7 133 -6 201
-22 112 -105 259 -200 353 -68 68 -212 163 -245 164 -9 0 -20 4 -25 9 -36 32
-274 49 -375 26z"/>
</g>
</svg>
